# AST/ASF file generated using VICON BodyLanguage
# -----------------------------------------------
:version 1.10
:name VICON
:units
  mass 1.0
  length 0.45
  angle deg
:documentation
   .ast/.asf automatically generated from VICON data using
   VICON BodyBuilder and BodyLanguage model FoxedUp or BRILLIANT.MOD
:root
   order TX TY TZ RX RY RZ
   axis XYZ
   position 0 0 0  
   orientation 0 0 0 
:bonedata
  begin
     id 1 
     name lhipjoint
     direction 0.522423 -0.726805 0.445902 
     length 2.25074 
     axis 0 0 0  XYZ
  end
  begin
     id 2 
     name lfemur
     direction 0.34202 -0.939693 0  
     length 6.54609  
     axis 0 0 20  XYZ
    dof rx ry rz
    limits (-160.0 20.0)
           (-70.0 70.0)
           (-60.0 70.0)
  end
  begin
     id 3 
     name ltibia
     direction 0.34202 -0.939693 0   
     length 7.7528   
     axis 0 0 20   XYZ
    dof rx
    limits (-10.0 170.0)
  end
  begin
     id 4 
     name lfoot
     direction 0.143696 -0.394801 0.90746   
     length 1.73269   
     axis -90 7.62852e-016 20   XYZ
    dof rx rz
    limits (-45.0 90.0)
           (-70.0 20.0)
  end
  begin
     id 5 
     name ltoes
     direction 1.53633e-011 -4.21912e-011 1   
     length 0.858383   
     axis -90 7.62852e-016 20   XYZ
    dof rx
    limits (-90.0 20.0)
  end
  begin
     id 6 
     name rhipjoint
     direction -0.515943 -0.73016 0.447961   
     length 2.2404  
     axis 0 0 0  XYZ 
  end
  begin
     id 7 
     name rfemur
     direction -0.34202 -0.939693 0   
     length 6.84377   
     axis 0 0 -20   XYZ
    dof rx ry rz
    limits (-160.0 20.0)
           (-70.0 70.0)
           (-70.0 60.0)
  end
  begin
     id 8 
     name rtibia
     direction -0.34202 -0.939693 0   
     length 7.57596   
     axis 0 0 -20   XYZ
    dof rx
    limits (-10.0 170.0)
 end
 begin
     id 9 
     name rfoot
     direction -0.0999372 -0.274575 0.956358   
     length 1.78783  
     axis -90 -7.62852e-016 -20   XYZ
    dof rx rz
    limits (-45.0 90.0)
           (-20.0 70.0)
  end
  begin
     id 10 
     name rtoes
     direction -1.53535e-011 -4.21895e-011 1   
     length 0.898614   
     axis -90 -7.62852e-016 -20   XYZ
    dof rx
    limits (-90.0 20.0)
  end
  begin
     id 11 
     name lowerback
     direction -0.011775 0.996164 -0.0867116   
     length 1.91499   
     axis 0 0 0   XYZ
    dof rx ry rz
    limits (-20.0 45.0)
           (-30.0 30.0)
           (-30.0 30.0)
  end
  begin
     id 12 
     name upperback
     direction -0.00189771 0.999673 -0.0254833   
     length 1.92213   
     axis 0 0 0   XYZ
    dof rx ry rz
    limits (-20.0 45.0)
           (-30.0 30.0)
           (-30.0 30.0)
  end
  begin
     id 13 
     name thorax
     direction 0.00335995 0.999878 0.0152401   
     length 1.93138   
     axis 0 0 0   XYZ
    dof rx ry rz
    limits (-20.0 45.0)
           (-30.0 30.0)
           (-30.0 30.0)
  end
  begin
     id 14 
     name lowerneck
     direction 0.00233191 0.998509 0.0545404   
     length 1.59408   
     axis 0 0 0   XYZ
    dof rx ry rz
    limits (-20.0 45.0)
           (-30.0 30.0)
           (-30.0 30.0)
  end
  begin
     id 15 
     name upperneck
     direction 0.07881 0.9956 -0.0506934   
     length 1.59344   
     axis 0 0 0   XYZ
    dof rx ry rz
    limits (-20.0 45.0)
           (-30.0 30.0)
           (-30.0 30.0)
  end
  begin
     id 16
     name head
     direction 0.0261681 0.999378 -0.0236299  
     length 1.60935  
     axis 0 0 0   XYZ
    dof rx ry rz
    limits (-20.0 45.0)
           (-30.0 30.0)
           (-30.0 30.0)
  end
  begin
     id 17 
     name lclavicle
     direction 0.96643 0.252035 0.0499195  
     length 3.82153  
     axis 0 0 0   XYZ
    dof ry rz
    limits (-20.0 10.0)
           (0.0 20.0)
  end
  begin
     id 18 
     name lhumerus
     direction 1 -4.48967e-011 -2.01614e-018   
     length 4.87796   
     axis 180 -30 -90   XYZ
    dof rx ry rz
    limits (-60.0 90.0)
           (-90.0 90.0)
           (-90.0 90.0)
  end
  begin
     id 19
     name lradius
     direction 1 -4.48958e-011 3.1409e-027   
     length 3.23169   
     axis 180 -30 -90   XYZ
    dof rx
    limits (-10.0 170.0)
  end
  begin
     id 20
     name lwrist
     direction 1 -4.48924e-011 1.0365e-027   
     length 1.61584   
     axis -2.56395e-016 90 90   XYZ
    dof ry
    limits (-180.0 0.0)
 end
  begin
     id 21 
     name lhand
     direction 1 -4.49055e-011 2.09488e-027   
     length 0.731324   
     axis -1.32723e-015 90 90   XYZ
    dof rx rz
    limits (-90.0 90.0)
           (-45.0 45.0)
  end
  begin
     id 22 
     name lfingers
     direction 1 -4.48935e-011 4.14981e-027   
     length 0.589612   
     axis -2.6545e-015 90 90   XYZ
    dof rx
    limits (0.0 90.0)
  end
  begin
     id 23
     name lthumb
     direction 0.707107 -6.35097e-011 0.707107   
     length 0.846569   
     axis -90 45 5.05613e-014   XYZ
    dof rx rz
    limits (-45.0 45.0)
           (-45.0 45.0)
  end
  begin
     id 24 
     name rclavicle
     direction -0.979337 0.201016 0.0221522   
     length 3.73827  
     axis 0 0 0   XYZ 
    dof ry rz
    limits (-10.0 20.0)
           (-20.0 0.0)
  end
  begin
     id 25 
     name rhumerus
     direction -1 -4.48971e-011 1.65907e-027  
     length 4.9143   
     axis 180 30 90   XYZ
    dof rx ry rz
    limits (-90.0 60.0)
           (-90.0 90.0)
           (-90.0 90.0)
  end
  begin
     id 26 
     name rradius
     direction -1 -4.4894e-011 2.17871e-028   
     length 3.29093   
     axis 180 30 90   XYZ
    dof rx
    limits (-10.0 170.0)
  end
  begin
     id 27 
     name rwrist
     direction -1 -4.48971e-011 1.04038e-027   
     length 1.64546   
     axis -2.56395e-016 -90 -90   XYZ
    dof ry
    limits (-180.0 0.0)
  end
  begin
     id 28
     name rhand
     direction -1 -4.49017e-011 2.08843e-027   
     length 0.54512   
     axis -1.32723e-015 -90 -90   XYZ
    dof rx rz
    limits (-90.0 90.0)
           (-45.0 45.0)
  end
  begin
     id 29
     name rfingers
     direction -1 -4.48918e-011 4.1439e-027   
     length 0.43949   
     axis -2.6545e-015 -90 -90   XYZ
    dof rx
    limits (0.0 90.0)
  end
  begin
     id 30
     name rthumb
     direction -0.707107 -6.35065e-011 0.707107   
     length 0.631022   
     axis -90 -45 -5.05613e-014   XYZ
    dof rx rz
    limits (-45.0 45.0)
           (-45.0 45.0)
  end
:hierarchy
  begin
    root lhipjoint rhipjoint lowerback
    lhipjoint lfemur
    lfemur ltibia
    ltibia lfoot
    lfoot ltoes
    rhipjoint rfemur
    rfemur rtibia
    rtibia rfoot
    rfoot rtoes
    lowerback upperback
    upperback thorax
    thorax lowerneck lclavicle rclavicle
    lowerneck upperneck
    upperneck head
    lclavicle lhumerus
    lhumerus lradius
    lradius lwrist
    lwrist lhand lthumb
    lhand lfingers
    rclavicle rhumerus
    rhumerus rradius
    rradius rwrist
    rwrist rhand rthumb
    rhand rfingers
  end

#!OML:ASF H:\BreakDance\Project 1\Capture day 1\Session 1\Male.ASF
:FULLY-SPECIFIED
:DEGREES
272
root 17.3454 15.881 -0.575558 14.2748 -14.6384 9.95772
lowerback 2.62885 -2.73424 -11.266
upperback 2.10905 -3.84766 0.338622
thorax 1.5074 -2.09716 6.69167
lowerneck 3.89916 -16.9496 -14.1884
upperneck -8.33328 -22.7073 21.5937
head 1.14289 -11.7675 7.9481
rclavicle 7.55382e-015 -1.43125e-014
rhumerus -24.5849 26.8008 -94.2272
rradius 32.1897
rwrist 7.86379
rhand -11.2075 -30.2059
rfingers 7.12502
rthumb 14.8206 -59.6559
lclavicle 7.55382e-015 -1.43125e-014
lhumerus -28.7754 43.6805 53.7682
lradius 29.2552
lwrist -41.1407
lhand -8.66703 -19.7187
lfingers 7.12502
lthumb 17.2669 9.53425
rfemur -35.2829 -8.72446 16.4039
rtibia 70.5244
rfoot -15.5774 8.50658
rtoes 37.9835
lfemur -27.0086 -1.42984 -16.7365
ltibia 49.1422
lfoot -21.5583 -5.16132
ltoes -35.8713
273
root 17.4172 15.7318 -0.697676 14.502 -14.745 9.97791
lowerback 2.53656 -2.63131 -11.8624
upperback 2.10833 -3.70789 0.182815
thorax 1.56274 -2.03751 6.85739
lowerneck 4.03819 -17.0013 -14.2123
upperneck -8.90221 -22.7292 22.0813
head 1.03166 -11.8196 8.12687
rclavicle 4.96962e-016 -3.1408e-014
rhumerus -26.2171 26.0178 -94.521
rradius 32.7716
rwrist 7.40591
rhand -10.8443 -29.2138
rfingers 7.12502
rthumb 15.1705 -58.6377
lclavicle 4.96962e-016 -3.1408e-014
lhumerus -29.6705 40.3373 51.4341
lradius 29.3124
lwrist -40.5585
lhand -8.08648 -20.8138
lfingers 7.12502
lthumb 17.8256 8.38922
rfemur -34.3453 -8.86847 16.6299
rtibia 72.205
rfoot -14.716 8.86386
rtoes 37.2759
lfemur -28.1261 -0.730354 -17.0279
ltibia 50.5662
lfoot -24.1124 -4.11086
ltoes -36.5668
274
root 17.4803 15.5869 -0.814319 14.7672 -14.8434 10.0087
lowerback 2.36372 -2.53089 -12.5237
upperback 2.09478 -3.5604 0.0317903
thorax 1.65138 -1.97676 7.06054
lowerneck 4.27791 -17.0842 -14.118
upperneck -9.56099 -22.7817 22.437
head 0.852001 -11.8948 8.26754
rclavicle -3.11098e-014 1.80894e-014
rhumerus -27.8486 25.1268 -94.8009
rradius 33.3064
rwrist 6.82256
rhand -10.4772 -28.4029
rfingers 7.12502
rthumb 15.5241 -57.7997
lclavicle -3.11098e-014 1.80894e-014
lhumerus -30.3857 36.7422 49.3619
lradius 29.3394
lwrist -39.7998
lhand -7.84195 -21.87
lfingers 7.12502
lthumb 18.0609 7.31149
rfemur -33.3029 -8.91226 16.8155
rtibia 73.5984
rfoot -13.6236 9.18059
rtoes 37.1611
lfemur -29.3395 0.286116 -17.3387
ltibia 51.9389
lfoot -26.4768 -3.25922
ltoes -37.3463
275
root 17.5346 15.4486 -0.925046 15.039 -14.901 10.0486
lowerback 2.14949 -2.44466 -13.2254
upperback 2.07683 -3.4235 -0.111157
thorax 1.76222 -1.92366 7.29256
lowerneck 4.60794 -17.1877 -13.9258
upperneck -10.2829 -22.8541 22.66
head 0.613115 -11.9853 8.37215
rclavicle -2.08724e-015 -2.94201e-014
rhumerus -29.4884 24.1982 -95.0741
rradius 33.7982
rwrist 6.07636
rhand -10.1211 -27.8576
rfingers 7.12502
rthumb 15.8671 -57.2275
lclavicle -2.08724e-015 -2.94201e-014
lhumerus -30.9677 32.9828 47.5067
lradius 29.328
lwrist -38.8561
lhand -7.88073 -22.8333
lfingers 7.12502
lthumb 18.0236 6.35154
rfemur -32.1087 -8.89708 16.9759
rtibia 74.669
rfoot -12.3212 9.42567
rtoes 37.7483
lfemur -30.6112 1.51763 -17.6556
ltibia 53.263
lfoot -28.6438 -2.61932
ltoes -38.2702
276
root 17.5807 15.3169 -1.0306 15.2877 -14.8901 10.1066
lowerback 1.94407 -2.37462 -13.9549
upperback 2.05656 -3.30639 -0.244029
thorax 1.87062 -1.8813 7.55094
lowerneck 5.00433 -17.2952 -13.7092
upperneck -11.0241 -22.9326 22.7874
head 0.342474 -12.0801 8.45746
rclavicle -2.10712e-014 -2.33572e-014
rhumerus -31.1337 23.2424 -95.3297
rradius 34.2356
rwrist 5.16875
rhand -9.76025 -27.5523
rfingers 7.12502
rthumb 16.2145 -56.8942
lclavicle -2.10712e-014 -2.33572e-014
lhumerus -31.4433 29.1733 45.8371
lradius 29.2624
lwrist -37.7619
lhand -8.14553 -23.654
lfingers 7.12502
lthumb 17.7688 5.55423
rfemur -30.7422 -8.87072 17.1229
rtibia 75.402
rfoot -10.8868 9.50616
rtoes 38.7448
lfemur -31.9253 2.84022 -17.9675
ltibia 54.5902
lfoot -30.6083 -2.2366
ltoes -39.2304
277
root 17.6191 15.1895 -1.13272 15.501 -14.8024 10.2006
lowerback 1.77071 -2.3146 -14.6972
upperback 2.03429 -3.20463 -0.384983
thorax 1.96086 -1.84589 7.80866
lowerneck 5.4307 -17.386 -13.544
upperneck -11.7293 -22.9987 22.8779
head 0.0758325 -12.1656 8.54393
rclavicle -8.92543e-014 -1.31695e-014
rhumerus -32.746 22.2051 -95.5635
rradius 34.5642
rwrist 4.14595
rhand -9.32241 -27.3118
rfingers 7.12502
rthumb 16.6361 -56.6189
lclavicle -8.92543e-014 -1.31695e-014
lhumerus -31.7981 25.3874 44.3155
lradius 29.125
lwrist -36.5471
lhand -8.55609 -24.2963
lfingers 7.12502
lthumb 17.3737 4.94725
rfemur -29.2246 -8.85521 17.2519
rtibia 75.819
rfoot -9.41264 9.36912
rtoes 39.9387
lfemur -33.288 4.13951 -18.2744
ltibia 55.9761
lfoot -32.3654 -2.13213
ltoes -40.0564
278
root 17.6528 15.0602 -1.234 15.6675 -14.6411 10.3379
lowerback 1.641 -2.25261 -15.4166
upperback 2.01466 -3.10437 -0.56137
thorax 2.02418 -1.80897 8.01673
lowerneck 5.85025 -17.4488 -13.4733
upperneck -12.3552 -23.0434 22.9756
head -0.158309 -12.2342 8.6425
rclavicle -4.14901e-014 -2.76932e-014
rhumerus -34.2832 21.037 -95.7884
rradius 34.7192
rwrist 3.04621
rhand -8.73613 -26.9575
rfingers 7.12502
rthumb 17.2004 -56.2162
lclavicle -4.14901e-014 -2.76932e-014
lhumerus -32.0059 21.8028 42.8514
lradius 28.8873
lwrist -35.3447
lhand -8.97086 -24.797
lfingers 7.12502
lthumb 16.9745 4.48126
rfemur -27.5859 -8.98375 17.3995
rtibia 75.9415
rfoot -8.1475 8.87147
rtoes 39.8879
lfemur -34.7147 5.33422 -18.5823
ltibia 57.4801
lfoot -33.9175 -2.2452
ltoes -40.7162
279
root 17.6822 14.9299 -1.33516 15.7817 -14.4213 10.4998
lowerback 1.56004 -2.17843 -16.0606
upperback 2.00169 -2.99356 -0.781185
thorax 2.05531 -1.76314 8.13724
lowerneck 6.24506 -17.4836 -13.5411
upperneck -12.8602 -23.0748 23.1047
head -0.334869 -12.2872 8.75811
rclavicle -7.26309e-014 -8.64713e-015
rhumerus -35.7201 19.7176 -96.0016
rradius 34.6649
rwrist 1.94994
rhand -8.00554 -26.4267
rfingers 7.12502
rthumb 17.9035 -55.6226
lclavicle -7.26309e-014 -8.64713e-015
lhumerus -32.0599 18.7057 41.334
lradius 28.5183
lwrist -34.3817
lhand -9.24208 -25.1712
lfingers 7.12502
lthumb 16.7134 4.12936
rfemur -25.8468 -9.16021 17.5065
rtibia 75.8221
rfoot -6.95503 8.25808
rtoes 40.1269
lfemur -36.1805 6.40667 -18.8833
ltibia 59.0985
lfoot -35.2802 -2.37687
ltoes -41.3765
280
root 17.7101 14.7982 -1.43622 15.8557 -14.1625 10.6574
lowerback 1.50573 -2.08954 -16.5627
upperback 2.00001 -2.86506 -1.04965
thorax 2.06598 -1.70465 8.12656
lowerneck 6.57477 -17.4892 -13.6847
upperneck -13.2219 -23.0863 23.2175
head -0.456295 -12.3187 8.8646
rclavicle -3.30976e-014 5.88403e-014
rhumerus -37.0244 18.2306 -96.1971
rradius 34.3745
rwrist 0.988997
rhand -7.19273 -25.7702
rfingers 7.12502
rthumb 18.6855 -54.8928
lclavicle -3.30976e-014 5.88403e-014
lhumerus -31.9571 16.2655 39.6949
lradius 28.0337
lwrist -33.7842
lhand -9.24793 -25.3536
lfingers 7.12502
lthumb 16.7078 3.94744
rfemur -24.038 -9.4131 17.5868
rtibia 75.4734
rfoot -5.95093 7.52122
rtoes 40.1585
lfemur -37.6803 7.34719 -19.1611
ltibia 60.8111
lfoot -36.4715 -2.45294
ltoes -42.1086
